<svg xmlns="http://www.w3.org/2000/svg" width="231.782" height="243.993" viewBox="0 0 231.782 243.993">
  <g id="suit" transform="translate(-43.03 55.619) rotate(-19)" opacity="0.35">
    <path id="Path_6" data-name="Path 6" d="M211.175,59.132a19.773,19.773,0,0,0-12.107-17.347L169.5,29.464,146.7,16.433A3.277,3.277,0,0,0,145.067,16v0H112.234v0a3.276,3.276,0,0,0-1.629.43L87.8,29.464,58.231,41.785A19.773,19.773,0,0,0,46.123,59.132L40,203.012a3.283,3.283,0,0,0,2.38,3.3l22.983,6.567v0a3.286,3.286,0,0,0,.9.13h35.3a23.651,23.651,0,0,0,12.043-3.283H143.7A23.651,23.651,0,0,0,155.738,213h35.3a3.286,3.286,0,0,0,.9-.13v0l22.983-6.567a3.283,3.283,0,0,0,2.38-3.3ZM147.911,24.69l16.856,9.632V46.27l-10.646,2.662A3.283,3.283,0,0,0,151.9,53.41l9.267,21.623-21.178,44.7ZM131.946,137.211c-.007.092-.01.183-.01.273h0V189.2a23.672,23.672,0,0,0,4.536,13.954H120.831a23.672,23.672,0,0,0,4.536-13.954V137.484h0c0-.09,0-.181-.01-.273L116.9,35.7H140.4Zm9.005-108.078h-24.6l-.545-6.567h25.7ZM92.534,34.322l16.856-9.632,7.921,95.046-21.176-44.7L105.4,53.41a3.283,3.283,0,0,0-2.222-4.478L92.534,46.27ZM74.7,150.618H92.534a6.575,6.575,0,0,1-6.567,6.567H74.13Zm-2.57,29.55h20.4a6.575,6.575,0,0,1-6.567,6.567H71.561Zm-2.284,26.267L70.99,193.3H85.967A13.148,13.148,0,0,0,99.1,180.168v-3.283a3.283,3.283,0,0,0-3.283-3.283H72.7l.857-9.85H85.967A13.148,13.148,0,0,0,99.1,150.618v-3.283a3.283,3.283,0,0,0-3.283-3.283H75.273l.832-9.566A3.243,3.243,0,0,0,76.11,134L72.827,81.462l-6.554.41,3.268,52.287-6.2,71.307-16.667-4.761L52.686,59.412a13.182,13.182,0,0,1,8.07-11.566l25.21-10.5V48.834a3.283,3.283,0,0,0,2.487,3.185l9.393,2.348-8.332,19.44a3.283,3.283,0,0,0,.051,2.7L118.8,138.223V189.2a17.257,17.257,0,0,1-17.238,17.238Zm124.111-.967-6.2-71.307,3.268-52.287-6.554-.41L181.191,134a3.239,3.239,0,0,0,.006.489l.833,9.566H161.484a3.283,3.283,0,0,0-3.283,3.283v3.283a13.148,13.148,0,0,0,13.133,13.133h12.409l3.709,42.684H155.738A17.257,17.257,0,0,1,138.5,189.2V138.223l22.122-46.706h14V84.95H163.734l4-8.444a3.283,3.283,0,0,0,.051-2.7l-8.332-19.44,9.393-2.348a3.283,3.283,0,0,0,2.487-3.185V37.342l25.21,10.5a13.182,13.182,0,0,1,8.07,11.565l6.013,141.294Zm-10.787-48.283H171.334a6.575,6.575,0,0,1-6.567-6.567H182.6Z" fill="#393b44"/>
    <rect id="Rectangle_14" data-name="Rectangle 14" width="6" height="7" transform="translate(106 144)" fill="#393b44"/>
    <rect id="Rectangle_15" data-name="Rectangle 15" width="6" height="6" transform="translate(106 164)" fill="#393b44"/>
  </g>
</svg>
